%TF.GenerationSoftware,KiCad,Pcbnew,5.1.10*%
%TF.CreationDate,2022-04-13T10:23:53+12:00*%
%TF.ProjectId,odsk,6f64736b-2e6b-4696-9361-645f70636258,rev?*%
%TF.SameCoordinates,Original*%
%TF.FileFunction,Legend,Top*%
%TF.FilePolarity,Positive*%
%FSLAX46Y46*%
G04 Gerber Fmt 4.6, Leading zero omitted, Abs format (unit mm)*
G04 Created by KiCad (PCBNEW 5.1.10) date 2022-04-13 10:23:53*
%MOMM*%
%LPD*%
G01*
G04 APERTURE LIST*
%ADD10C,0.120000*%
%ADD11C,0.150000*%
G04 APERTURE END LIST*
D10*
%TO.C,C3*%
X188188748Y-132490000D02*
X189611252Y-132490000D01*
X188188748Y-134310000D02*
X189611252Y-134310000D01*
%TO.C,C14*%
X193561252Y-127765000D02*
X193038748Y-127765000D01*
X193561252Y-129235000D02*
X193038748Y-129235000D01*
%TO.C,C13*%
X193561252Y-124965000D02*
X193038748Y-124965000D01*
X193561252Y-126435000D02*
X193038748Y-126435000D01*
%TO.C,C12*%
X178861252Y-138765000D02*
X178338748Y-138765000D01*
X178861252Y-140235000D02*
X178338748Y-140235000D01*
%TO.C,C11*%
X178961252Y-124965000D02*
X178438748Y-124965000D01*
X178961252Y-126435000D02*
X178438748Y-126435000D01*
%TO.C,C10*%
X172838748Y-126435000D02*
X173361252Y-126435000D01*
X172838748Y-124965000D02*
X173361252Y-124965000D01*
%TO.C,C9*%
X178961252Y-127765000D02*
X178438748Y-127765000D01*
X178961252Y-129235000D02*
X178438748Y-129235000D01*
%TO.C,C8*%
X172838748Y-129235000D02*
X173361252Y-129235000D01*
X172838748Y-127765000D02*
X173361252Y-127765000D01*
%TO.C,C6*%
X168038748Y-129235000D02*
X168561252Y-129235000D01*
X168038748Y-127765000D02*
X168561252Y-127765000D01*
%TO.C,C5*%
X178861252Y-136265000D02*
X178338748Y-136265000D01*
X178861252Y-137735000D02*
X178338748Y-137735000D01*
%TO.C,C4*%
X178338748Y-132435000D02*
X178861252Y-132435000D01*
X178338748Y-130965000D02*
X178861252Y-130965000D01*
%TO.C,C2*%
X188538748Y-137235000D02*
X189061252Y-137235000D01*
X188538748Y-135765000D02*
X189061252Y-135765000D01*
%TO.C,C1*%
X188538748Y-140435000D02*
X189061252Y-140435000D01*
X188538748Y-138965000D02*
X189061252Y-138965000D01*
%TO.C,U2*%
X169015000Y-134200000D02*
X169015000Y-136400000D01*
X169015000Y-134200000D02*
X169015000Y-132000000D01*
X175785000Y-134200000D02*
X175785000Y-136400000D01*
X175785000Y-134200000D02*
X175785000Y-130600000D01*
%TO.C,U1*%
X185200000Y-134790000D02*
X183400000Y-134790000D01*
X183400000Y-138010000D02*
X185850000Y-138010000D01*
%TO.C,R4*%
X187227064Y-129235000D02*
X186772936Y-129235000D01*
X187227064Y-127765000D02*
X186772936Y-127765000D01*
%TO.C,R3*%
X187227064Y-126435000D02*
X186772936Y-126435000D01*
X187227064Y-124965000D02*
X186772936Y-124965000D01*
%TO.C,R2*%
X166327064Y-133635000D02*
X165872936Y-133635000D01*
X166327064Y-132165000D02*
X165872936Y-132165000D01*
%TO.C,R1*%
X166327064Y-136435000D02*
X165872936Y-136435000D01*
X166327064Y-134965000D02*
X165872936Y-134965000D01*
%TO.C,C7*%
X155040000Y-130740000D02*
X155040000Y-132440000D01*
X155040000Y-136260000D02*
X155040000Y-134560000D01*
X159495563Y-136260000D02*
X155040000Y-136260000D01*
X159495563Y-130740000D02*
X155040000Y-130740000D01*
X160560000Y-131804437D02*
X160560000Y-132440000D01*
X160560000Y-135195563D02*
X160560000Y-134560000D01*
X160560000Y-135195563D02*
X159495563Y-136260000D01*
X160560000Y-131804437D02*
X159495563Y-130740000D01*
X161425000Y-135185000D02*
X160800000Y-135185000D01*
X161112500Y-135497500D02*
X161112500Y-134872500D01*
%TO.C,C3*%
D11*
X191633333Y-133657142D02*
X191585714Y-133704761D01*
X191442857Y-133752380D01*
X191347619Y-133752380D01*
X191204761Y-133704761D01*
X191109523Y-133609523D01*
X191061904Y-133514285D01*
X191014285Y-133323809D01*
X191014285Y-133180952D01*
X191061904Y-132990476D01*
X191109523Y-132895238D01*
X191204761Y-132800000D01*
X191347619Y-132752380D01*
X191442857Y-132752380D01*
X191585714Y-132800000D01*
X191633333Y-132847619D01*
X191966666Y-132752380D02*
X192585714Y-132752380D01*
X192252380Y-133133333D01*
X192395238Y-133133333D01*
X192490476Y-133180952D01*
X192538095Y-133228571D01*
X192585714Y-133323809D01*
X192585714Y-133561904D01*
X192538095Y-133657142D01*
X192490476Y-133704761D01*
X192395238Y-133752380D01*
X192109523Y-133752380D01*
X192014285Y-133704761D01*
X191966666Y-133657142D01*
%TO.C,C14*%
X195957142Y-128957142D02*
X195909523Y-129004761D01*
X195766666Y-129052380D01*
X195671428Y-129052380D01*
X195528571Y-129004761D01*
X195433333Y-128909523D01*
X195385714Y-128814285D01*
X195338095Y-128623809D01*
X195338095Y-128480952D01*
X195385714Y-128290476D01*
X195433333Y-128195238D01*
X195528571Y-128100000D01*
X195671428Y-128052380D01*
X195766666Y-128052380D01*
X195909523Y-128100000D01*
X195957142Y-128147619D01*
X196909523Y-129052380D02*
X196338095Y-129052380D01*
X196623809Y-129052380D02*
X196623809Y-128052380D01*
X196528571Y-128195238D01*
X196433333Y-128290476D01*
X196338095Y-128338095D01*
X197766666Y-128385714D02*
X197766666Y-129052380D01*
X197528571Y-128004761D02*
X197290476Y-128719047D01*
X197909523Y-128719047D01*
%TO.C,C13*%
X195957142Y-126057142D02*
X195909523Y-126104761D01*
X195766666Y-126152380D01*
X195671428Y-126152380D01*
X195528571Y-126104761D01*
X195433333Y-126009523D01*
X195385714Y-125914285D01*
X195338095Y-125723809D01*
X195338095Y-125580952D01*
X195385714Y-125390476D01*
X195433333Y-125295238D01*
X195528571Y-125200000D01*
X195671428Y-125152380D01*
X195766666Y-125152380D01*
X195909523Y-125200000D01*
X195957142Y-125247619D01*
X196909523Y-126152380D02*
X196338095Y-126152380D01*
X196623809Y-126152380D02*
X196623809Y-125152380D01*
X196528571Y-125295238D01*
X196433333Y-125390476D01*
X196338095Y-125438095D01*
X197242857Y-125152380D02*
X197861904Y-125152380D01*
X197528571Y-125533333D01*
X197671428Y-125533333D01*
X197766666Y-125580952D01*
X197814285Y-125628571D01*
X197861904Y-125723809D01*
X197861904Y-125961904D01*
X197814285Y-126057142D01*
X197766666Y-126104761D01*
X197671428Y-126152380D01*
X197385714Y-126152380D01*
X197290476Y-126104761D01*
X197242857Y-126057142D01*
%TO.C,C12*%
X181257142Y-139857142D02*
X181209523Y-139904761D01*
X181066666Y-139952380D01*
X180971428Y-139952380D01*
X180828571Y-139904761D01*
X180733333Y-139809523D01*
X180685714Y-139714285D01*
X180638095Y-139523809D01*
X180638095Y-139380952D01*
X180685714Y-139190476D01*
X180733333Y-139095238D01*
X180828571Y-139000000D01*
X180971428Y-138952380D01*
X181066666Y-138952380D01*
X181209523Y-139000000D01*
X181257142Y-139047619D01*
X182209523Y-139952380D02*
X181638095Y-139952380D01*
X181923809Y-139952380D02*
X181923809Y-138952380D01*
X181828571Y-139095238D01*
X181733333Y-139190476D01*
X181638095Y-139238095D01*
X182590476Y-139047619D02*
X182638095Y-139000000D01*
X182733333Y-138952380D01*
X182971428Y-138952380D01*
X183066666Y-139000000D01*
X183114285Y-139047619D01*
X183161904Y-139142857D01*
X183161904Y-139238095D01*
X183114285Y-139380952D01*
X182542857Y-139952380D01*
X183161904Y-139952380D01*
%TO.C,C11*%
X181357142Y-126157142D02*
X181309523Y-126204761D01*
X181166666Y-126252380D01*
X181071428Y-126252380D01*
X180928571Y-126204761D01*
X180833333Y-126109523D01*
X180785714Y-126014285D01*
X180738095Y-125823809D01*
X180738095Y-125680952D01*
X180785714Y-125490476D01*
X180833333Y-125395238D01*
X180928571Y-125300000D01*
X181071428Y-125252380D01*
X181166666Y-125252380D01*
X181309523Y-125300000D01*
X181357142Y-125347619D01*
X182309523Y-126252380D02*
X181738095Y-126252380D01*
X182023809Y-126252380D02*
X182023809Y-125252380D01*
X181928571Y-125395238D01*
X181833333Y-125490476D01*
X181738095Y-125538095D01*
X183261904Y-126252380D02*
X182690476Y-126252380D01*
X182976190Y-126252380D02*
X182976190Y-125252380D01*
X182880952Y-125395238D01*
X182785714Y-125490476D01*
X182690476Y-125538095D01*
%TO.C,C10*%
X175385714Y-125885714D02*
X175347619Y-125923809D01*
X175233333Y-125961904D01*
X175157142Y-125961904D01*
X175042857Y-125923809D01*
X174966666Y-125847619D01*
X174928571Y-125771428D01*
X174890476Y-125619047D01*
X174890476Y-125504761D01*
X174928571Y-125352380D01*
X174966666Y-125276190D01*
X175042857Y-125200000D01*
X175157142Y-125161904D01*
X175233333Y-125161904D01*
X175347619Y-125200000D01*
X175385714Y-125238095D01*
X176147619Y-125961904D02*
X175690476Y-125961904D01*
X175919047Y-125961904D02*
X175919047Y-125161904D01*
X175842857Y-125276190D01*
X175766666Y-125352380D01*
X175690476Y-125390476D01*
X176642857Y-125161904D02*
X176719047Y-125161904D01*
X176795238Y-125200000D01*
X176833333Y-125238095D01*
X176871428Y-125314285D01*
X176909523Y-125466666D01*
X176909523Y-125657142D01*
X176871428Y-125809523D01*
X176833333Y-125885714D01*
X176795238Y-125923809D01*
X176719047Y-125961904D01*
X176642857Y-125961904D01*
X176566666Y-125923809D01*
X176528571Y-125885714D01*
X176490476Y-125809523D01*
X176452380Y-125657142D01*
X176452380Y-125466666D01*
X176490476Y-125314285D01*
X176528571Y-125238095D01*
X176566666Y-125200000D01*
X176642857Y-125161904D01*
%TO.C,C9*%
X181433333Y-128757142D02*
X181385714Y-128804761D01*
X181242857Y-128852380D01*
X181147619Y-128852380D01*
X181004761Y-128804761D01*
X180909523Y-128709523D01*
X180861904Y-128614285D01*
X180814285Y-128423809D01*
X180814285Y-128280952D01*
X180861904Y-128090476D01*
X180909523Y-127995238D01*
X181004761Y-127900000D01*
X181147619Y-127852380D01*
X181242857Y-127852380D01*
X181385714Y-127900000D01*
X181433333Y-127947619D01*
X181909523Y-128852380D02*
X182100000Y-128852380D01*
X182195238Y-128804761D01*
X182242857Y-128757142D01*
X182338095Y-128614285D01*
X182385714Y-128423809D01*
X182385714Y-128042857D01*
X182338095Y-127947619D01*
X182290476Y-127900000D01*
X182195238Y-127852380D01*
X182004761Y-127852380D01*
X181909523Y-127900000D01*
X181861904Y-127947619D01*
X181814285Y-128042857D01*
X181814285Y-128280952D01*
X181861904Y-128376190D01*
X181909523Y-128423809D01*
X182004761Y-128471428D01*
X182195238Y-128471428D01*
X182290476Y-128423809D01*
X182338095Y-128376190D01*
X182385714Y-128280952D01*
%TO.C,C8*%
X175933333Y-128857142D02*
X175885714Y-128904761D01*
X175742857Y-128952380D01*
X175647619Y-128952380D01*
X175504761Y-128904761D01*
X175409523Y-128809523D01*
X175361904Y-128714285D01*
X175314285Y-128523809D01*
X175314285Y-128380952D01*
X175361904Y-128190476D01*
X175409523Y-128095238D01*
X175504761Y-128000000D01*
X175647619Y-127952380D01*
X175742857Y-127952380D01*
X175885714Y-128000000D01*
X175933333Y-128047619D01*
X176504761Y-128380952D02*
X176409523Y-128333333D01*
X176361904Y-128285714D01*
X176314285Y-128190476D01*
X176314285Y-128142857D01*
X176361904Y-128047619D01*
X176409523Y-128000000D01*
X176504761Y-127952380D01*
X176695238Y-127952380D01*
X176790476Y-128000000D01*
X176838095Y-128047619D01*
X176885714Y-128142857D01*
X176885714Y-128190476D01*
X176838095Y-128285714D01*
X176790476Y-128333333D01*
X176695238Y-128380952D01*
X176504761Y-128380952D01*
X176409523Y-128428571D01*
X176361904Y-128476190D01*
X176314285Y-128571428D01*
X176314285Y-128761904D01*
X176361904Y-128857142D01*
X176409523Y-128904761D01*
X176504761Y-128952380D01*
X176695238Y-128952380D01*
X176790476Y-128904761D01*
X176838095Y-128857142D01*
X176885714Y-128761904D01*
X176885714Y-128571428D01*
X176838095Y-128476190D01*
X176790476Y-128428571D01*
X176695238Y-128380952D01*
%TO.C,C6*%
X168333333Y-126957142D02*
X168285714Y-127004761D01*
X168142857Y-127052380D01*
X168047619Y-127052380D01*
X167904761Y-127004761D01*
X167809523Y-126909523D01*
X167761904Y-126814285D01*
X167714285Y-126623809D01*
X167714285Y-126480952D01*
X167761904Y-126290476D01*
X167809523Y-126195238D01*
X167904761Y-126100000D01*
X168047619Y-126052380D01*
X168142857Y-126052380D01*
X168285714Y-126100000D01*
X168333333Y-126147619D01*
X169190476Y-126052380D02*
X169000000Y-126052380D01*
X168904761Y-126100000D01*
X168857142Y-126147619D01*
X168761904Y-126290476D01*
X168714285Y-126480952D01*
X168714285Y-126861904D01*
X168761904Y-126957142D01*
X168809523Y-127004761D01*
X168904761Y-127052380D01*
X169095238Y-127052380D01*
X169190476Y-127004761D01*
X169238095Y-126957142D01*
X169285714Y-126861904D01*
X169285714Y-126623809D01*
X169238095Y-126528571D01*
X169190476Y-126480952D01*
X169095238Y-126433333D01*
X168904761Y-126433333D01*
X168809523Y-126480952D01*
X168761904Y-126528571D01*
X168714285Y-126623809D01*
%TO.C,C5*%
X181233333Y-137357142D02*
X181185714Y-137404761D01*
X181042857Y-137452380D01*
X180947619Y-137452380D01*
X180804761Y-137404761D01*
X180709523Y-137309523D01*
X180661904Y-137214285D01*
X180614285Y-137023809D01*
X180614285Y-136880952D01*
X180661904Y-136690476D01*
X180709523Y-136595238D01*
X180804761Y-136500000D01*
X180947619Y-136452380D01*
X181042857Y-136452380D01*
X181185714Y-136500000D01*
X181233333Y-136547619D01*
X182138095Y-136452380D02*
X181661904Y-136452380D01*
X181614285Y-136928571D01*
X181661904Y-136880952D01*
X181757142Y-136833333D01*
X181995238Y-136833333D01*
X182090476Y-136880952D01*
X182138095Y-136928571D01*
X182185714Y-137023809D01*
X182185714Y-137261904D01*
X182138095Y-137357142D01*
X182090476Y-137404761D01*
X181995238Y-137452380D01*
X181757142Y-137452380D01*
X181661904Y-137404761D01*
X181614285Y-137357142D01*
%TO.C,C4*%
X181433333Y-131957142D02*
X181385714Y-132004761D01*
X181242857Y-132052380D01*
X181147619Y-132052380D01*
X181004761Y-132004761D01*
X180909523Y-131909523D01*
X180861904Y-131814285D01*
X180814285Y-131623809D01*
X180814285Y-131480952D01*
X180861904Y-131290476D01*
X180909523Y-131195238D01*
X181004761Y-131100000D01*
X181147619Y-131052380D01*
X181242857Y-131052380D01*
X181385714Y-131100000D01*
X181433333Y-131147619D01*
X182290476Y-131385714D02*
X182290476Y-132052380D01*
X182052380Y-131004761D02*
X181814285Y-131719047D01*
X182433333Y-131719047D01*
%TO.C,C2*%
X191533333Y-136757142D02*
X191485714Y-136804761D01*
X191342857Y-136852380D01*
X191247619Y-136852380D01*
X191104761Y-136804761D01*
X191009523Y-136709523D01*
X190961904Y-136614285D01*
X190914285Y-136423809D01*
X190914285Y-136280952D01*
X190961904Y-136090476D01*
X191009523Y-135995238D01*
X191104761Y-135900000D01*
X191247619Y-135852380D01*
X191342857Y-135852380D01*
X191485714Y-135900000D01*
X191533333Y-135947619D01*
X191914285Y-135947619D02*
X191961904Y-135900000D01*
X192057142Y-135852380D01*
X192295238Y-135852380D01*
X192390476Y-135900000D01*
X192438095Y-135947619D01*
X192485714Y-136042857D01*
X192485714Y-136138095D01*
X192438095Y-136280952D01*
X191866666Y-136852380D01*
X192485714Y-136852380D01*
%TO.C,C1*%
X191433333Y-139957142D02*
X191385714Y-140004761D01*
X191242857Y-140052380D01*
X191147619Y-140052380D01*
X191004761Y-140004761D01*
X190909523Y-139909523D01*
X190861904Y-139814285D01*
X190814285Y-139623809D01*
X190814285Y-139480952D01*
X190861904Y-139290476D01*
X190909523Y-139195238D01*
X191004761Y-139100000D01*
X191147619Y-139052380D01*
X191242857Y-139052380D01*
X191385714Y-139100000D01*
X191433333Y-139147619D01*
X192385714Y-140052380D02*
X191814285Y-140052380D01*
X192100000Y-140052380D02*
X192100000Y-139052380D01*
X192004761Y-139195238D01*
X191909523Y-139290476D01*
X191814285Y-139338095D01*
%TO.C,U2*%
X176052380Y-134961904D02*
X176861904Y-134961904D01*
X176957142Y-134914285D01*
X177004761Y-134866666D01*
X177052380Y-134771428D01*
X177052380Y-134580952D01*
X177004761Y-134485714D01*
X176957142Y-134438095D01*
X176861904Y-134390476D01*
X176052380Y-134390476D01*
X176147619Y-133961904D02*
X176100000Y-133914285D01*
X176052380Y-133819047D01*
X176052380Y-133580952D01*
X176100000Y-133485714D01*
X176147619Y-133438095D01*
X176242857Y-133390476D01*
X176338095Y-133390476D01*
X176480952Y-133438095D01*
X177052380Y-134009523D01*
X177052380Y-133390476D01*
%TO.C,U1*%
X183638095Y-133052380D02*
X183638095Y-133861904D01*
X183685714Y-133957142D01*
X183733333Y-134004761D01*
X183828571Y-134052380D01*
X184019047Y-134052380D01*
X184114285Y-134004761D01*
X184161904Y-133957142D01*
X184209523Y-133861904D01*
X184209523Y-133052380D01*
X185209523Y-134052380D02*
X184638095Y-134052380D01*
X184923809Y-134052380D02*
X184923809Y-133052380D01*
X184828571Y-133195238D01*
X184733333Y-133290476D01*
X184638095Y-133338095D01*
%TO.C,R4*%
X189633333Y-129052380D02*
X189300000Y-128576190D01*
X189061904Y-129052380D02*
X189061904Y-128052380D01*
X189442857Y-128052380D01*
X189538095Y-128100000D01*
X189585714Y-128147619D01*
X189633333Y-128242857D01*
X189633333Y-128385714D01*
X189585714Y-128480952D01*
X189538095Y-128528571D01*
X189442857Y-128576190D01*
X189061904Y-128576190D01*
X190490476Y-128385714D02*
X190490476Y-129052380D01*
X190252380Y-128004761D02*
X190014285Y-128719047D01*
X190633333Y-128719047D01*
%TO.C,R3*%
X189633333Y-126052380D02*
X189300000Y-125576190D01*
X189061904Y-126052380D02*
X189061904Y-125052380D01*
X189442857Y-125052380D01*
X189538095Y-125100000D01*
X189585714Y-125147619D01*
X189633333Y-125242857D01*
X189633333Y-125385714D01*
X189585714Y-125480952D01*
X189538095Y-125528571D01*
X189442857Y-125576190D01*
X189061904Y-125576190D01*
X189966666Y-125052380D02*
X190585714Y-125052380D01*
X190252380Y-125433333D01*
X190395238Y-125433333D01*
X190490476Y-125480952D01*
X190538095Y-125528571D01*
X190585714Y-125623809D01*
X190585714Y-125861904D01*
X190538095Y-125957142D01*
X190490476Y-126004761D01*
X190395238Y-126052380D01*
X190109523Y-126052380D01*
X190014285Y-126004761D01*
X189966666Y-125957142D01*
%TO.C,R2*%
X163033333Y-133352380D02*
X162700000Y-132876190D01*
X162461904Y-133352380D02*
X162461904Y-132352380D01*
X162842857Y-132352380D01*
X162938095Y-132400000D01*
X162985714Y-132447619D01*
X163033333Y-132542857D01*
X163033333Y-132685714D01*
X162985714Y-132780952D01*
X162938095Y-132828571D01*
X162842857Y-132876190D01*
X162461904Y-132876190D01*
X163414285Y-132447619D02*
X163461904Y-132400000D01*
X163557142Y-132352380D01*
X163795238Y-132352380D01*
X163890476Y-132400000D01*
X163938095Y-132447619D01*
X163985714Y-132542857D01*
X163985714Y-132638095D01*
X163938095Y-132780952D01*
X163366666Y-133352380D01*
X163985714Y-133352380D01*
%TO.C,R1*%
X163033333Y-136052380D02*
X162700000Y-135576190D01*
X162461904Y-136052380D02*
X162461904Y-135052380D01*
X162842857Y-135052380D01*
X162938095Y-135100000D01*
X162985714Y-135147619D01*
X163033333Y-135242857D01*
X163033333Y-135385714D01*
X162985714Y-135480952D01*
X162938095Y-135528571D01*
X162842857Y-135576190D01*
X162461904Y-135576190D01*
X163985714Y-136052380D02*
X163414285Y-136052380D01*
X163700000Y-136052380D02*
X163700000Y-135052380D01*
X163604761Y-135195238D01*
X163509523Y-135290476D01*
X163414285Y-135338095D01*
%TO.C,C7*%
X155933333Y-137657142D02*
X155885714Y-137704761D01*
X155742857Y-137752380D01*
X155647619Y-137752380D01*
X155504761Y-137704761D01*
X155409523Y-137609523D01*
X155361904Y-137514285D01*
X155314285Y-137323809D01*
X155314285Y-137180952D01*
X155361904Y-136990476D01*
X155409523Y-136895238D01*
X155504761Y-136800000D01*
X155647619Y-136752380D01*
X155742857Y-136752380D01*
X155885714Y-136800000D01*
X155933333Y-136847619D01*
X156266666Y-136752380D02*
X156933333Y-136752380D01*
X156504761Y-137752380D01*
%TD*%
M02*
