M48
; DRILL file {KiCad 5.1.10} date Wed Apr 13 10:23:55 2022
; FORMAT={-:-/ absolute / inch / decimal}
; #@! TF.CreationDate,2022-04-13T10:23:55+12:00
; #@! TF.GenerationSoftware,Kicad,Pcbnew,5.1.10
; #@! TF.FileFunction,Plated,1,2,PTH
FMAT,2
INCH
T1C0.0157
T2C0.0354
T3C0.0390
T4C0.0394
T5C0.0512
%
G90
G05
T1
X6.3976Y-5.3425
X6.5276Y-5.0827
X6.6299Y-5.4134
X6.6693Y-4.9921
X6.6693Y-5.4567
X6.8484Y-5.1181
X6.874Y-5.3474
X6.9213Y-5.1063
X6.9252Y-5.4567
X7.0354Y-5.126
X7.1378Y-5.3937
X7.1535Y-5.3189
X7.2008Y-5.4488
X7.3661Y-5.315
X7.5197Y-4.8917
X7.7441Y-5.0591
X7.7461Y-5.2264
T3
X6.2402Y-5.7458
X6.4173Y-5.7458
X6.563Y-5.7461
X6.7402Y-5.7461
X6.8839Y-5.7458
X7.061Y-5.7458
X7.2017Y-5.7458
X7.3789Y-5.7458
X7.5217Y-5.7458
X7.6989Y-5.7458
X7.8425Y-5.7461
X8.0197Y-5.7461
T4
X6.1787Y-4.7228
X6.1787Y-4.8228
X6.1787Y-4.9228
X6.1787Y-5.0228
X6.2787Y-4.7228
X6.2787Y-4.8228
X6.2787Y-4.9228
X6.2787Y-5.0228
X6.3787Y-4.7228
X6.3787Y-4.8228
X6.4787Y-4.7228
X6.4787Y-4.8228
X6.5787Y-4.7228
X6.5787Y-4.8228
X6.6787Y-4.7228
X6.6787Y-4.8228
X6.7787Y-4.7228
X6.7787Y-4.8228
X6.8787Y-4.7228
X6.8787Y-4.8228
X6.9787Y-4.7228
X6.9787Y-4.8228
X7.0787Y-4.7228
X7.0787Y-4.8228
X7.1787Y-4.7228
X7.1787Y-4.8228
X7.2787Y-4.7228
X7.2787Y-4.8228
X7.3787Y-4.7228
X7.3787Y-4.8228
X7.4787Y-4.7228
X7.4787Y-4.8228
X7.5787Y-4.7228
X7.5787Y-4.8228
X7.6787Y-4.7228
X7.6787Y-4.8228
X7.7787Y-4.7228
X7.7787Y-4.8228
X7.8787Y-4.7228
X7.8787Y-4.8228
X7.9787Y-4.7228
X7.9787Y-4.8228
X8.0787Y-4.7228
X8.0787Y-4.8228
T5
X6.1906Y-5.6478
X6.4665Y-5.6478
X6.5134Y-5.648
X6.7894Y-5.648
X6.8343Y-5.6478
X7.1102Y-5.6478
X7.1521Y-5.6478
X7.4281Y-5.6478
X7.4721Y-5.6478
X7.7481Y-5.6478
X7.7929Y-5.648
X8.0689Y-5.648
T2
G00X7.9646Y-5.1378
M15
G01X7.9488Y-5.1378
M16
G05
G00X8.0079Y-5.3189
M15
G01X7.9921Y-5.3189
M16
G05
G00X8.1654Y-5.3189
M15
G01X8.1496Y-5.3189
M16
G05
G00X8.2835Y-5.3189
M15
G01X8.2677Y-5.3189
M16
G05
T0
M30
