%TF.GenerationSoftware,KiCad,Pcbnew,5.1.10*%
%TF.CreationDate,2022-04-13T10:23:53+12:00*%
%TF.ProjectId,odsk,6f64736b-2e6b-4696-9361-645f70636258,rev?*%
%TF.SameCoordinates,Original*%
%TF.FileFunction,Soldermask,Top*%
%TF.FilePolarity,Negative*%
%FSLAX46Y46*%
G04 Gerber Fmt 4.6, Leading zero omitted, Abs format (unit mm)*
G04 Created by KiCad (PCBNEW 5.1.10) date 2022-04-13 10:23:53*
%MOMM*%
%LPD*%
G01*
G04 APERTURE LIST*
%ADD10O,2.000000X1.600000*%
%ADD11C,0.800000*%
%ADD12R,1.060000X0.650000*%
%ADD13C,2.100000*%
%ADD14C,1.750000*%
%ADD15O,1.700000X1.700000*%
%ADD16C,1.700000*%
%ADD17R,1.700000X1.700000*%
%ADD18C,2.750000*%
G04 APERTURE END LIST*
%TO.C,C3*%
G36*
G01*
X189800000Y-134050001D02*
X189800000Y-132749999D01*
G75*
G02*
X190049999Y-132500000I249999J0D01*
G01*
X190875001Y-132500000D01*
G75*
G02*
X191125000Y-132749999I0J-249999D01*
G01*
X191125000Y-134050001D01*
G75*
G02*
X190875001Y-134300000I-249999J0D01*
G01*
X190049999Y-134300000D01*
G75*
G02*
X189800000Y-134050001I0J249999D01*
G01*
G37*
G36*
G01*
X186675000Y-134050001D02*
X186675000Y-132749999D01*
G75*
G02*
X186924999Y-132500000I249999J0D01*
G01*
X187750001Y-132500000D01*
G75*
G02*
X188000000Y-132749999I0J-249999D01*
G01*
X188000000Y-134050001D01*
G75*
G02*
X187750001Y-134300000I-249999J0D01*
G01*
X186924999Y-134300000D01*
G75*
G02*
X186675000Y-134050001I0J249999D01*
G01*
G37*
%TD*%
D10*
%TO.C,AV_OUTPUT1*%
X202100000Y-130500000D03*
X203200000Y-135100000D03*
X210200000Y-135100000D03*
D11*
X204800000Y-132800000D03*
X211800000Y-132800000D03*
D10*
X207200000Y-135100000D03*
%TD*%
%TO.C,C14*%
G36*
G01*
X194925000Y-128025000D02*
X194925000Y-128975000D01*
G75*
G02*
X194675000Y-129225000I-250000J0D01*
G01*
X194000000Y-129225000D01*
G75*
G02*
X193750000Y-128975000I0J250000D01*
G01*
X193750000Y-128025000D01*
G75*
G02*
X194000000Y-127775000I250000J0D01*
G01*
X194675000Y-127775000D01*
G75*
G02*
X194925000Y-128025000I0J-250000D01*
G01*
G37*
G36*
G01*
X192850000Y-128025000D02*
X192850000Y-128975000D01*
G75*
G02*
X192600000Y-129225000I-250000J0D01*
G01*
X191925000Y-129225000D01*
G75*
G02*
X191675000Y-128975000I0J250000D01*
G01*
X191675000Y-128025000D01*
G75*
G02*
X191925000Y-127775000I250000J0D01*
G01*
X192600000Y-127775000D01*
G75*
G02*
X192850000Y-128025000I0J-250000D01*
G01*
G37*
%TD*%
%TO.C,C13*%
G36*
G01*
X194925000Y-125225000D02*
X194925000Y-126175000D01*
G75*
G02*
X194675000Y-126425000I-250000J0D01*
G01*
X194000000Y-126425000D01*
G75*
G02*
X193750000Y-126175000I0J250000D01*
G01*
X193750000Y-125225000D01*
G75*
G02*
X194000000Y-124975000I250000J0D01*
G01*
X194675000Y-124975000D01*
G75*
G02*
X194925000Y-125225000I0J-250000D01*
G01*
G37*
G36*
G01*
X192850000Y-125225000D02*
X192850000Y-126175000D01*
G75*
G02*
X192600000Y-126425000I-250000J0D01*
G01*
X191925000Y-126425000D01*
G75*
G02*
X191675000Y-126175000I0J250000D01*
G01*
X191675000Y-125225000D01*
G75*
G02*
X191925000Y-124975000I250000J0D01*
G01*
X192600000Y-124975000D01*
G75*
G02*
X192850000Y-125225000I0J-250000D01*
G01*
G37*
%TD*%
%TO.C,C12*%
G36*
G01*
X180225000Y-139025000D02*
X180225000Y-139975000D01*
G75*
G02*
X179975000Y-140225000I-250000J0D01*
G01*
X179300000Y-140225000D01*
G75*
G02*
X179050000Y-139975000I0J250000D01*
G01*
X179050000Y-139025000D01*
G75*
G02*
X179300000Y-138775000I250000J0D01*
G01*
X179975000Y-138775000D01*
G75*
G02*
X180225000Y-139025000I0J-250000D01*
G01*
G37*
G36*
G01*
X178150000Y-139025000D02*
X178150000Y-139975000D01*
G75*
G02*
X177900000Y-140225000I-250000J0D01*
G01*
X177225000Y-140225000D01*
G75*
G02*
X176975000Y-139975000I0J250000D01*
G01*
X176975000Y-139025000D01*
G75*
G02*
X177225000Y-138775000I250000J0D01*
G01*
X177900000Y-138775000D01*
G75*
G02*
X178150000Y-139025000I0J-250000D01*
G01*
G37*
%TD*%
%TO.C,C11*%
G36*
G01*
X180325000Y-125225000D02*
X180325000Y-126175000D01*
G75*
G02*
X180075000Y-126425000I-250000J0D01*
G01*
X179400000Y-126425000D01*
G75*
G02*
X179150000Y-126175000I0J250000D01*
G01*
X179150000Y-125225000D01*
G75*
G02*
X179400000Y-124975000I250000J0D01*
G01*
X180075000Y-124975000D01*
G75*
G02*
X180325000Y-125225000I0J-250000D01*
G01*
G37*
G36*
G01*
X178250000Y-125225000D02*
X178250000Y-126175000D01*
G75*
G02*
X178000000Y-126425000I-250000J0D01*
G01*
X177325000Y-126425000D01*
G75*
G02*
X177075000Y-126175000I0J250000D01*
G01*
X177075000Y-125225000D01*
G75*
G02*
X177325000Y-124975000I250000J0D01*
G01*
X178000000Y-124975000D01*
G75*
G02*
X178250000Y-125225000I0J-250000D01*
G01*
G37*
%TD*%
%TO.C,C10*%
G36*
G01*
X171475000Y-126175000D02*
X171475000Y-125225000D01*
G75*
G02*
X171725000Y-124975000I250000J0D01*
G01*
X172400000Y-124975000D01*
G75*
G02*
X172650000Y-125225000I0J-250000D01*
G01*
X172650000Y-126175000D01*
G75*
G02*
X172400000Y-126425000I-250000J0D01*
G01*
X171725000Y-126425000D01*
G75*
G02*
X171475000Y-126175000I0J250000D01*
G01*
G37*
G36*
G01*
X173550000Y-126175000D02*
X173550000Y-125225000D01*
G75*
G02*
X173800000Y-124975000I250000J0D01*
G01*
X174475000Y-124975000D01*
G75*
G02*
X174725000Y-125225000I0J-250000D01*
G01*
X174725000Y-126175000D01*
G75*
G02*
X174475000Y-126425000I-250000J0D01*
G01*
X173800000Y-126425000D01*
G75*
G02*
X173550000Y-126175000I0J250000D01*
G01*
G37*
%TD*%
%TO.C,C9*%
G36*
G01*
X180325000Y-128025000D02*
X180325000Y-128975000D01*
G75*
G02*
X180075000Y-129225000I-250000J0D01*
G01*
X179400000Y-129225000D01*
G75*
G02*
X179150000Y-128975000I0J250000D01*
G01*
X179150000Y-128025000D01*
G75*
G02*
X179400000Y-127775000I250000J0D01*
G01*
X180075000Y-127775000D01*
G75*
G02*
X180325000Y-128025000I0J-250000D01*
G01*
G37*
G36*
G01*
X178250000Y-128025000D02*
X178250000Y-128975000D01*
G75*
G02*
X178000000Y-129225000I-250000J0D01*
G01*
X177325000Y-129225000D01*
G75*
G02*
X177075000Y-128975000I0J250000D01*
G01*
X177075000Y-128025000D01*
G75*
G02*
X177325000Y-127775000I250000J0D01*
G01*
X178000000Y-127775000D01*
G75*
G02*
X178250000Y-128025000I0J-250000D01*
G01*
G37*
%TD*%
%TO.C,C8*%
G36*
G01*
X171475000Y-128975000D02*
X171475000Y-128025000D01*
G75*
G02*
X171725000Y-127775000I250000J0D01*
G01*
X172400000Y-127775000D01*
G75*
G02*
X172650000Y-128025000I0J-250000D01*
G01*
X172650000Y-128975000D01*
G75*
G02*
X172400000Y-129225000I-250000J0D01*
G01*
X171725000Y-129225000D01*
G75*
G02*
X171475000Y-128975000I0J250000D01*
G01*
G37*
G36*
G01*
X173550000Y-128975000D02*
X173550000Y-128025000D01*
G75*
G02*
X173800000Y-127775000I250000J0D01*
G01*
X174475000Y-127775000D01*
G75*
G02*
X174725000Y-128025000I0J-250000D01*
G01*
X174725000Y-128975000D01*
G75*
G02*
X174475000Y-129225000I-250000J0D01*
G01*
X173800000Y-129225000D01*
G75*
G02*
X173550000Y-128975000I0J250000D01*
G01*
G37*
%TD*%
%TO.C,C6*%
G36*
G01*
X166675000Y-128975000D02*
X166675000Y-128025000D01*
G75*
G02*
X166925000Y-127775000I250000J0D01*
G01*
X167600000Y-127775000D01*
G75*
G02*
X167850000Y-128025000I0J-250000D01*
G01*
X167850000Y-128975000D01*
G75*
G02*
X167600000Y-129225000I-250000J0D01*
G01*
X166925000Y-129225000D01*
G75*
G02*
X166675000Y-128975000I0J250000D01*
G01*
G37*
G36*
G01*
X168750000Y-128975000D02*
X168750000Y-128025000D01*
G75*
G02*
X169000000Y-127775000I250000J0D01*
G01*
X169675000Y-127775000D01*
G75*
G02*
X169925000Y-128025000I0J-250000D01*
G01*
X169925000Y-128975000D01*
G75*
G02*
X169675000Y-129225000I-250000J0D01*
G01*
X169000000Y-129225000D01*
G75*
G02*
X168750000Y-128975000I0J250000D01*
G01*
G37*
%TD*%
%TO.C,C5*%
G36*
G01*
X180225000Y-136525000D02*
X180225000Y-137475000D01*
G75*
G02*
X179975000Y-137725000I-250000J0D01*
G01*
X179300000Y-137725000D01*
G75*
G02*
X179050000Y-137475000I0J250000D01*
G01*
X179050000Y-136525000D01*
G75*
G02*
X179300000Y-136275000I250000J0D01*
G01*
X179975000Y-136275000D01*
G75*
G02*
X180225000Y-136525000I0J-250000D01*
G01*
G37*
G36*
G01*
X178150000Y-136525000D02*
X178150000Y-137475000D01*
G75*
G02*
X177900000Y-137725000I-250000J0D01*
G01*
X177225000Y-137725000D01*
G75*
G02*
X176975000Y-137475000I0J250000D01*
G01*
X176975000Y-136525000D01*
G75*
G02*
X177225000Y-136275000I250000J0D01*
G01*
X177900000Y-136275000D01*
G75*
G02*
X178150000Y-136525000I0J-250000D01*
G01*
G37*
%TD*%
%TO.C,C4*%
G36*
G01*
X176975000Y-132175000D02*
X176975000Y-131225000D01*
G75*
G02*
X177225000Y-130975000I250000J0D01*
G01*
X177900000Y-130975000D01*
G75*
G02*
X178150000Y-131225000I0J-250000D01*
G01*
X178150000Y-132175000D01*
G75*
G02*
X177900000Y-132425000I-250000J0D01*
G01*
X177225000Y-132425000D01*
G75*
G02*
X176975000Y-132175000I0J250000D01*
G01*
G37*
G36*
G01*
X179050000Y-132175000D02*
X179050000Y-131225000D01*
G75*
G02*
X179300000Y-130975000I250000J0D01*
G01*
X179975000Y-130975000D01*
G75*
G02*
X180225000Y-131225000I0J-250000D01*
G01*
X180225000Y-132175000D01*
G75*
G02*
X179975000Y-132425000I-250000J0D01*
G01*
X179300000Y-132425000D01*
G75*
G02*
X179050000Y-132175000I0J250000D01*
G01*
G37*
%TD*%
%TO.C,C2*%
G36*
G01*
X187175000Y-136975000D02*
X187175000Y-136025000D01*
G75*
G02*
X187425000Y-135775000I250000J0D01*
G01*
X188100000Y-135775000D01*
G75*
G02*
X188350000Y-136025000I0J-250000D01*
G01*
X188350000Y-136975000D01*
G75*
G02*
X188100000Y-137225000I-250000J0D01*
G01*
X187425000Y-137225000D01*
G75*
G02*
X187175000Y-136975000I0J250000D01*
G01*
G37*
G36*
G01*
X189250000Y-136975000D02*
X189250000Y-136025000D01*
G75*
G02*
X189500000Y-135775000I250000J0D01*
G01*
X190175000Y-135775000D01*
G75*
G02*
X190425000Y-136025000I0J-250000D01*
G01*
X190425000Y-136975000D01*
G75*
G02*
X190175000Y-137225000I-250000J0D01*
G01*
X189500000Y-137225000D01*
G75*
G02*
X189250000Y-136975000I0J250000D01*
G01*
G37*
%TD*%
%TO.C,C1*%
G36*
G01*
X187175000Y-140175000D02*
X187175000Y-139225000D01*
G75*
G02*
X187425000Y-138975000I250000J0D01*
G01*
X188100000Y-138975000D01*
G75*
G02*
X188350000Y-139225000I0J-250000D01*
G01*
X188350000Y-140175000D01*
G75*
G02*
X188100000Y-140425000I-250000J0D01*
G01*
X187425000Y-140425000D01*
G75*
G02*
X187175000Y-140175000I0J250000D01*
G01*
G37*
G36*
G01*
X189250000Y-140175000D02*
X189250000Y-139225000D01*
G75*
G02*
X189500000Y-138975000I250000J0D01*
G01*
X190175000Y-138975000D01*
G75*
G02*
X190425000Y-139225000I0J-250000D01*
G01*
X190425000Y-140175000D01*
G75*
G02*
X190175000Y-140425000I-250000J0D01*
G01*
X189500000Y-140425000D01*
G75*
G02*
X189250000Y-140175000I0J250000D01*
G01*
G37*
%TD*%
%TO.C,U2*%
G36*
G01*
X175225000Y-130600000D02*
X175425000Y-130600000D01*
G75*
G02*
X175525000Y-130700000I0J-100000D01*
G01*
X175525000Y-131975000D01*
G75*
G02*
X175425000Y-132075000I-100000J0D01*
G01*
X175225000Y-132075000D01*
G75*
G02*
X175125000Y-131975000I0J100000D01*
G01*
X175125000Y-130700000D01*
G75*
G02*
X175225000Y-130600000I100000J0D01*
G01*
G37*
G36*
G01*
X174575000Y-130600000D02*
X174775000Y-130600000D01*
G75*
G02*
X174875000Y-130700000I0J-100000D01*
G01*
X174875000Y-131975000D01*
G75*
G02*
X174775000Y-132075000I-100000J0D01*
G01*
X174575000Y-132075000D01*
G75*
G02*
X174475000Y-131975000I0J100000D01*
G01*
X174475000Y-130700000D01*
G75*
G02*
X174575000Y-130600000I100000J0D01*
G01*
G37*
G36*
G01*
X173925000Y-130600000D02*
X174125000Y-130600000D01*
G75*
G02*
X174225000Y-130700000I0J-100000D01*
G01*
X174225000Y-131975000D01*
G75*
G02*
X174125000Y-132075000I-100000J0D01*
G01*
X173925000Y-132075000D01*
G75*
G02*
X173825000Y-131975000I0J100000D01*
G01*
X173825000Y-130700000D01*
G75*
G02*
X173925000Y-130600000I100000J0D01*
G01*
G37*
G36*
G01*
X173275000Y-130600000D02*
X173475000Y-130600000D01*
G75*
G02*
X173575000Y-130700000I0J-100000D01*
G01*
X173575000Y-131975000D01*
G75*
G02*
X173475000Y-132075000I-100000J0D01*
G01*
X173275000Y-132075000D01*
G75*
G02*
X173175000Y-131975000I0J100000D01*
G01*
X173175000Y-130700000D01*
G75*
G02*
X173275000Y-130600000I100000J0D01*
G01*
G37*
G36*
G01*
X172625000Y-130600000D02*
X172825000Y-130600000D01*
G75*
G02*
X172925000Y-130700000I0J-100000D01*
G01*
X172925000Y-131975000D01*
G75*
G02*
X172825000Y-132075000I-100000J0D01*
G01*
X172625000Y-132075000D01*
G75*
G02*
X172525000Y-131975000I0J100000D01*
G01*
X172525000Y-130700000D01*
G75*
G02*
X172625000Y-130600000I100000J0D01*
G01*
G37*
G36*
G01*
X171975000Y-130600000D02*
X172175000Y-130600000D01*
G75*
G02*
X172275000Y-130700000I0J-100000D01*
G01*
X172275000Y-131975000D01*
G75*
G02*
X172175000Y-132075000I-100000J0D01*
G01*
X171975000Y-132075000D01*
G75*
G02*
X171875000Y-131975000I0J100000D01*
G01*
X171875000Y-130700000D01*
G75*
G02*
X171975000Y-130600000I100000J0D01*
G01*
G37*
G36*
G01*
X171325000Y-130600000D02*
X171525000Y-130600000D01*
G75*
G02*
X171625000Y-130700000I0J-100000D01*
G01*
X171625000Y-131975000D01*
G75*
G02*
X171525000Y-132075000I-100000J0D01*
G01*
X171325000Y-132075000D01*
G75*
G02*
X171225000Y-131975000I0J100000D01*
G01*
X171225000Y-130700000D01*
G75*
G02*
X171325000Y-130600000I100000J0D01*
G01*
G37*
G36*
G01*
X170675000Y-130600000D02*
X170875000Y-130600000D01*
G75*
G02*
X170975000Y-130700000I0J-100000D01*
G01*
X170975000Y-131975000D01*
G75*
G02*
X170875000Y-132075000I-100000J0D01*
G01*
X170675000Y-132075000D01*
G75*
G02*
X170575000Y-131975000I0J100000D01*
G01*
X170575000Y-130700000D01*
G75*
G02*
X170675000Y-130600000I100000J0D01*
G01*
G37*
G36*
G01*
X170025000Y-130600000D02*
X170225000Y-130600000D01*
G75*
G02*
X170325000Y-130700000I0J-100000D01*
G01*
X170325000Y-131975000D01*
G75*
G02*
X170225000Y-132075000I-100000J0D01*
G01*
X170025000Y-132075000D01*
G75*
G02*
X169925000Y-131975000I0J100000D01*
G01*
X169925000Y-130700000D01*
G75*
G02*
X170025000Y-130600000I100000J0D01*
G01*
G37*
G36*
G01*
X169375000Y-130600000D02*
X169575000Y-130600000D01*
G75*
G02*
X169675000Y-130700000I0J-100000D01*
G01*
X169675000Y-131975000D01*
G75*
G02*
X169575000Y-132075000I-100000J0D01*
G01*
X169375000Y-132075000D01*
G75*
G02*
X169275000Y-131975000I0J100000D01*
G01*
X169275000Y-130700000D01*
G75*
G02*
X169375000Y-130600000I100000J0D01*
G01*
G37*
G36*
G01*
X169375000Y-136325000D02*
X169575000Y-136325000D01*
G75*
G02*
X169675000Y-136425000I0J-100000D01*
G01*
X169675000Y-137700000D01*
G75*
G02*
X169575000Y-137800000I-100000J0D01*
G01*
X169375000Y-137800000D01*
G75*
G02*
X169275000Y-137700000I0J100000D01*
G01*
X169275000Y-136425000D01*
G75*
G02*
X169375000Y-136325000I100000J0D01*
G01*
G37*
G36*
G01*
X170025000Y-136325000D02*
X170225000Y-136325000D01*
G75*
G02*
X170325000Y-136425000I0J-100000D01*
G01*
X170325000Y-137700000D01*
G75*
G02*
X170225000Y-137800000I-100000J0D01*
G01*
X170025000Y-137800000D01*
G75*
G02*
X169925000Y-137700000I0J100000D01*
G01*
X169925000Y-136425000D01*
G75*
G02*
X170025000Y-136325000I100000J0D01*
G01*
G37*
G36*
G01*
X170675000Y-136325000D02*
X170875000Y-136325000D01*
G75*
G02*
X170975000Y-136425000I0J-100000D01*
G01*
X170975000Y-137700000D01*
G75*
G02*
X170875000Y-137800000I-100000J0D01*
G01*
X170675000Y-137800000D01*
G75*
G02*
X170575000Y-137700000I0J100000D01*
G01*
X170575000Y-136425000D01*
G75*
G02*
X170675000Y-136325000I100000J0D01*
G01*
G37*
G36*
G01*
X171325000Y-136325000D02*
X171525000Y-136325000D01*
G75*
G02*
X171625000Y-136425000I0J-100000D01*
G01*
X171625000Y-137700000D01*
G75*
G02*
X171525000Y-137800000I-100000J0D01*
G01*
X171325000Y-137800000D01*
G75*
G02*
X171225000Y-137700000I0J100000D01*
G01*
X171225000Y-136425000D01*
G75*
G02*
X171325000Y-136325000I100000J0D01*
G01*
G37*
G36*
G01*
X171975000Y-136325000D02*
X172175000Y-136325000D01*
G75*
G02*
X172275000Y-136425000I0J-100000D01*
G01*
X172275000Y-137700000D01*
G75*
G02*
X172175000Y-137800000I-100000J0D01*
G01*
X171975000Y-137800000D01*
G75*
G02*
X171875000Y-137700000I0J100000D01*
G01*
X171875000Y-136425000D01*
G75*
G02*
X171975000Y-136325000I100000J0D01*
G01*
G37*
G36*
G01*
X172625000Y-136325000D02*
X172825000Y-136325000D01*
G75*
G02*
X172925000Y-136425000I0J-100000D01*
G01*
X172925000Y-137700000D01*
G75*
G02*
X172825000Y-137800000I-100000J0D01*
G01*
X172625000Y-137800000D01*
G75*
G02*
X172525000Y-137700000I0J100000D01*
G01*
X172525000Y-136425000D01*
G75*
G02*
X172625000Y-136325000I100000J0D01*
G01*
G37*
G36*
G01*
X173275000Y-136325000D02*
X173475000Y-136325000D01*
G75*
G02*
X173575000Y-136425000I0J-100000D01*
G01*
X173575000Y-137700000D01*
G75*
G02*
X173475000Y-137800000I-100000J0D01*
G01*
X173275000Y-137800000D01*
G75*
G02*
X173175000Y-137700000I0J100000D01*
G01*
X173175000Y-136425000D01*
G75*
G02*
X173275000Y-136325000I100000J0D01*
G01*
G37*
G36*
G01*
X173925000Y-136325000D02*
X174125000Y-136325000D01*
G75*
G02*
X174225000Y-136425000I0J-100000D01*
G01*
X174225000Y-137700000D01*
G75*
G02*
X174125000Y-137800000I-100000J0D01*
G01*
X173925000Y-137800000D01*
G75*
G02*
X173825000Y-137700000I0J100000D01*
G01*
X173825000Y-136425000D01*
G75*
G02*
X173925000Y-136325000I100000J0D01*
G01*
G37*
G36*
G01*
X174575000Y-136325000D02*
X174775000Y-136325000D01*
G75*
G02*
X174875000Y-136425000I0J-100000D01*
G01*
X174875000Y-137700000D01*
G75*
G02*
X174775000Y-137800000I-100000J0D01*
G01*
X174575000Y-137800000D01*
G75*
G02*
X174475000Y-137700000I0J100000D01*
G01*
X174475000Y-136425000D01*
G75*
G02*
X174575000Y-136325000I100000J0D01*
G01*
G37*
G36*
G01*
X175225000Y-136325000D02*
X175425000Y-136325000D01*
G75*
G02*
X175525000Y-136425000I0J-100000D01*
G01*
X175525000Y-137700000D01*
G75*
G02*
X175425000Y-137800000I-100000J0D01*
G01*
X175225000Y-137800000D01*
G75*
G02*
X175125000Y-137700000I0J100000D01*
G01*
X175125000Y-136425000D01*
G75*
G02*
X175225000Y-136325000I100000J0D01*
G01*
G37*
%TD*%
D12*
%TO.C,U1*%
X185400000Y-137350000D03*
X185400000Y-136400000D03*
X185400000Y-135450000D03*
X183200000Y-135450000D03*
X183200000Y-137350000D03*
%TD*%
%TO.C,R4*%
G36*
G01*
X188600000Y-128049999D02*
X188600000Y-128950001D01*
G75*
G02*
X188350001Y-129200000I-249999J0D01*
G01*
X187649999Y-129200000D01*
G75*
G02*
X187400000Y-128950001I0J249999D01*
G01*
X187400000Y-128049999D01*
G75*
G02*
X187649999Y-127800000I249999J0D01*
G01*
X188350001Y-127800000D01*
G75*
G02*
X188600000Y-128049999I0J-249999D01*
G01*
G37*
G36*
G01*
X186600000Y-128049999D02*
X186600000Y-128950001D01*
G75*
G02*
X186350001Y-129200000I-249999J0D01*
G01*
X185649999Y-129200000D01*
G75*
G02*
X185400000Y-128950001I0J249999D01*
G01*
X185400000Y-128049999D01*
G75*
G02*
X185649999Y-127800000I249999J0D01*
G01*
X186350001Y-127800000D01*
G75*
G02*
X186600000Y-128049999I0J-249999D01*
G01*
G37*
%TD*%
%TO.C,R3*%
G36*
G01*
X188600000Y-125249999D02*
X188600000Y-126150001D01*
G75*
G02*
X188350001Y-126400000I-249999J0D01*
G01*
X187649999Y-126400000D01*
G75*
G02*
X187400000Y-126150001I0J249999D01*
G01*
X187400000Y-125249999D01*
G75*
G02*
X187649999Y-125000000I249999J0D01*
G01*
X188350001Y-125000000D01*
G75*
G02*
X188600000Y-125249999I0J-249999D01*
G01*
G37*
G36*
G01*
X186600000Y-125249999D02*
X186600000Y-126150001D01*
G75*
G02*
X186350001Y-126400000I-249999J0D01*
G01*
X185649999Y-126400000D01*
G75*
G02*
X185400000Y-126150001I0J249999D01*
G01*
X185400000Y-125249999D01*
G75*
G02*
X185649999Y-125000000I249999J0D01*
G01*
X186350001Y-125000000D01*
G75*
G02*
X186600000Y-125249999I0J-249999D01*
G01*
G37*
%TD*%
%TO.C,R2*%
G36*
G01*
X167700000Y-132449999D02*
X167700000Y-133350001D01*
G75*
G02*
X167450001Y-133600000I-249999J0D01*
G01*
X166749999Y-133600000D01*
G75*
G02*
X166500000Y-133350001I0J249999D01*
G01*
X166500000Y-132449999D01*
G75*
G02*
X166749999Y-132200000I249999J0D01*
G01*
X167450001Y-132200000D01*
G75*
G02*
X167700000Y-132449999I0J-249999D01*
G01*
G37*
G36*
G01*
X165700000Y-132449999D02*
X165700000Y-133350001D01*
G75*
G02*
X165450001Y-133600000I-249999J0D01*
G01*
X164749999Y-133600000D01*
G75*
G02*
X164500000Y-133350001I0J249999D01*
G01*
X164500000Y-132449999D01*
G75*
G02*
X164749999Y-132200000I249999J0D01*
G01*
X165450001Y-132200000D01*
G75*
G02*
X165700000Y-132449999I0J-249999D01*
G01*
G37*
%TD*%
%TO.C,R1*%
G36*
G01*
X167700000Y-135249999D02*
X167700000Y-136150001D01*
G75*
G02*
X167450001Y-136400000I-249999J0D01*
G01*
X166749999Y-136400000D01*
G75*
G02*
X166500000Y-136150001I0J249999D01*
G01*
X166500000Y-135249999D01*
G75*
G02*
X166749999Y-135000000I249999J0D01*
G01*
X167450001Y-135000000D01*
G75*
G02*
X167700000Y-135249999I0J-249999D01*
G01*
G37*
G36*
G01*
X165700000Y-135249999D02*
X165700000Y-136150001D01*
G75*
G02*
X165450001Y-136400000I-249999J0D01*
G01*
X164749999Y-136400000D01*
G75*
G02*
X164500000Y-136150001I0J249999D01*
G01*
X164500000Y-135249999D01*
G75*
G02*
X164749999Y-135000000I249999J0D01*
G01*
X165450001Y-135000000D01*
G75*
G02*
X165700000Y-135249999I0J-249999D01*
G01*
G37*
%TD*%
%TO.C,C7*%
G36*
G01*
X161500000Y-132950000D02*
X161500000Y-134050000D01*
G75*
G02*
X161250000Y-134300000I-250000J0D01*
G01*
X158750000Y-134300000D01*
G75*
G02*
X158500000Y-134050000I0J250000D01*
G01*
X158500000Y-132950000D01*
G75*
G02*
X158750000Y-132700000I250000J0D01*
G01*
X161250000Y-132700000D01*
G75*
G02*
X161500000Y-132950000I0J-250000D01*
G01*
G37*
G36*
G01*
X157100000Y-132950000D02*
X157100000Y-134050000D01*
G75*
G02*
X156850000Y-134300000I-250000J0D01*
G01*
X154350000Y-134300000D01*
G75*
G02*
X154100000Y-134050000I0J250000D01*
G01*
X154100000Y-132950000D01*
G75*
G02*
X154350000Y-132700000I250000J0D01*
G01*
X156850000Y-132700000D01*
G75*
G02*
X157100000Y-132950000I0J-250000D01*
G01*
G37*
%TD*%
D13*
%TO.C,VOL_UP1*%
X164250000Y-143454000D03*
D14*
X163000000Y-145944000D03*
X158500000Y-145944000D03*
D13*
X157240000Y-143454000D03*
%TD*%
%TO.C,VOL_DOWN1*%
X189792000Y-143454000D03*
D14*
X191052000Y-145944000D03*
X195552000Y-145944000D03*
D13*
X196802000Y-143454000D03*
%TD*%
%TO.C,OMNI1*%
X188674000Y-143454000D03*
D14*
X187424000Y-145944000D03*
X182924000Y-145944000D03*
D13*
X181664000Y-143454000D03*
%TD*%
D15*
%TO.C,PI_ZERO1*%
X200120000Y-119960000D03*
X202660000Y-122500000D03*
X187420000Y-122500000D03*
X187420000Y-119960000D03*
X202660000Y-119960000D03*
X200120000Y-122500000D03*
X205200000Y-119960000D03*
D16*
X205200000Y-122500000D03*
D15*
X177260000Y-122500000D03*
X177260000Y-119960000D03*
X192500000Y-122500000D03*
X192500000Y-119960000D03*
X172180000Y-122500000D03*
X172180000Y-119960000D03*
X189960000Y-122500000D03*
X189960000Y-119960000D03*
X195040000Y-122500000D03*
X195040000Y-119960000D03*
X182340000Y-122500000D03*
X182340000Y-119960000D03*
X159480000Y-122500000D03*
X159480000Y-119960000D03*
X164560000Y-122500000D03*
X164560000Y-119960000D03*
X162020000Y-122500000D03*
X162020000Y-119960000D03*
X184880000Y-122500000D03*
X184880000Y-119960000D03*
X167100000Y-122500000D03*
X167100000Y-119960000D03*
X197580000Y-122500000D03*
X197580000Y-119960000D03*
X169640000Y-122500000D03*
X169640000Y-119960000D03*
X179800000Y-122500000D03*
X179800000Y-119960000D03*
X174720000Y-122500000D03*
X174720000Y-119960000D03*
D17*
X156940000Y-122500000D03*
D15*
X156940000Y-119960000D03*
D18*
X210070000Y-121230000D03*
X152070000Y-144230000D03*
X210070000Y-144230000D03*
X152070000Y-121230000D03*
D17*
X156940000Y-125040000D03*
X159480000Y-127580000D03*
D15*
X156940000Y-127580000D03*
X159480000Y-125040000D03*
%TD*%
D13*
%TO.C,SKIP_PREV1*%
X165440000Y-143460000D03*
D14*
X166700000Y-145950000D03*
X171200000Y-145950000D03*
D13*
X172450000Y-143460000D03*
%TD*%
%TO.C,SKIP_NEXT1*%
X173590000Y-143454000D03*
D14*
X174850000Y-145944000D03*
X179350000Y-145944000D03*
D13*
X180600000Y-143454000D03*
%TD*%
%TO.C,PLAY_PAUSE1*%
X204950000Y-143460000D03*
D14*
X203700000Y-145950000D03*
X199200000Y-145950000D03*
D13*
X197940000Y-143460000D03*
%TD*%
M02*
